#!OML:ASF E:/inclinewalkrobotboard/Project1/Captureday1/Session1/subject1.ASF
:FULLY-SPECIFIED
:DEGREES
163
root 0 0 0 1.4274684736906327 -3.542831163881505 1.8855729853156997
lowerback 11.967230523541366 0.8952294736150535 -0.09237000799734807
upperback -4.435320605747394 1.1229818721833962 -0.6295480217600781
thorax -11.555046902930751 0.5158085475541335 -0.872607010485492
lowerneck -6.094668668089518 1.6528841077536758 4.625313128272902
upperneck 18.44744525781515 3.157278336650457 -8.270203470399201
head 6.779547344812432 1.1636121034256752 -3.1895970992175102
rclavicle -1.7431921900667738E-16 -9.704527461127287E-16
rhumerus 22.2288416055273 15.95144421763654 -46.53995105919492
rradius 74.31504909573631
rwrist 27.893332755729645
rhand -34.85704982593782 -59.76481754554749
rfingers 7.12502
rthumb -8.016949899328603 -89.57729658383298
lclavicle -1.7279050528808905E-16 -9.489895696057472E-16
lhumerus 22.789364979018206 -12.794704349453541 43.63471002424241
lradius 71.31766252603896
lwrist -23.634797980940423
lhand -45.335306587725356 -73.18945775275071
lfingers 7.12502
lthumb -18.092613211120906 -43.97146393366393
rfemur -25.585855473688344 -2.146322990224978 16.699393469713122
rtibia 54.68011893914865
rfoot -27.305044311311768 -16.456659033586128
rtoes -17.657817067921872
lfemur -21.8090378515476 1.233288839651126 -18.179352696634542
ltibia 48.64919745665972
lfoot -23.73589613120052 -3.6043097607686043
ltoes -15.425567131997465
164
root 0 0 0 1.4275460255673327 -3.5423175612504543 1.8864723713455407
lowerback 11.967251646226245 0.8949262141998131 -0.09325210957742369
upperback -4.435386791630833 1.1224678982332255 -0.6296234933007173
thorax -11.555184729808719 0.5155805989509769 -0.8721171631534704
lowerneck -6.094382729545477 1.6530854700927506 4.625386087546604
upperneck 18.447384899850658 3.157536037697906 -8.270473252951803
head 6.77946252723817 1.1637196289994773 -3.189645803384777
rclavicle -1.7429089100050928E-16 -9.70443374796187E-16
rhumerus 22.229299387925494 15.951730423891265 -46.53968670083701
rradius 74.31548400246476
rwrist 27.893540944313195
rhand -34.857204736835264 -59.765547453062396
rfingers 7.12502
rthumb -8.017106032425334 -89.57800496490844
lclavicle -1.7282089041464812E-16 -9.490240861691522E-16
lhumerus 22.7881381577434 -12.794393118853378 43.635555993571984
lradius 71.3166959933219
lwrist -23.634156717965272
lhand -45.33489386730748 -73.18732540375022
lfingers 7.12502
lthumb -18.09223178612698 -43.969421957981695
rfemur -25.595557661552817 -2.150921584364987 16.69255570808671
rtibia 54.690798899362115
rfoot -27.316985580059388 -16.463183003052013
rtoes -17.671464196511103
lfemur -21.79991395717914 1.2310184432546174 -18.1810867784891
ltibia 48.6363906022206
lfoot -23.72606651320207 -3.6035888925722226
ltoes -15.41790365068577
165
root 0 0 0 0.3870322885199018 -2.9929053051446415 1.2267832277993163
lowerback 11.581087583072613 0.5933831743548039 -0.23863728080201585
upperback -3.116495240845573 0.756379590514544 -0.049799044336186205
thorax -9.883507134754412 0.34720707660351097 -0.07565687898247087
lowerneck -8.846863598596201 0.5055291119898022 2.883228628303068
upperneck 18.67448591306835 1.441754023349315 -5.987054292294741
head 7.309967079336198 0.4247503282907573 -2.347722774192356
rclavicle -1.66953625232759E-16 -8.877425633779679E-16
rhumerus 17.15930787166021 12.596311098107877 -49.60701103816657
rradius 69.61541588359437
rwrist 25.545466052829184
rhand -33.164015148249526 -51.79163197315629
rfingers 7.125019999999995
rthumb -6.391888851212464 -81.41018166934859
lclavicle -2.581599933572688E-16 -8.684939597249077E-16
lhumerus 19.486653107390158 -11.991814480081796 45.97771986277786
lradius 68.72363212606636
lwrist -21.878092120125334
lhand -44.22193476157399 -67.37041932674548
lfingers 7.125019999999999
lthumb -17.028108883639778 -38.08311009577422
rfemur -23.868401885570673 -1.3293116553563769 17.898321937542935
rtibia 52.72273267446188
rfoot -25.2728298659802 -15.354409261132439
rtoes -15.320926742978472
lfemur -22.748541753738692 1.4526131099155268 -18.026159231171718
ltibia 49.84255168949138
lfoot -24.8224510190334 -3.6050654591199836
ltoes -16.185820424362596
166
root 0 0 0 1.3553747926319253 -3.414384993265384 1.9774790560430733
lowerback 11.941498730007444 0.8206591532532483 -0.24516149305010648
upperback -4.3412459127587315 1.010821787557267 -0.5943343908975868
thorax -11.443953515877748 0.4646896875964669 -0.7302968891438958
lowerneck -6.2661362887505465 1.5929371193998383 4.495165216180816
upperneck 18.458433460759853 3.059163174675358 -8.131169848031384
head 6.80964864107782 1.122090631232593 -3.1319128881132845
rclavicle -1.9287995892930059E-16 -9.745352516013248E-16
rhumerus 21.608472100364466 15.535212750943705 -46.919942314088615
rradius 73.73842337854063
rwrist 27.608335275900174
rhand -34.65199471446005 -58.77057641770261
rfingers 7.125019999999999
rthumb -7.819042547751449 -88.58807632444586
lclavicle -1.8170932444076178E-16 -9.49036558676689E-16
lhumerus 22.460961146318265 -12.715620885820481 43.860419786434576
lradius 71.06479883601853
lwrist -23.464413670050433
lhand -45.22883972716047 -72.62683069653679
lfingers 7.12502
lthumb -17.988634125539775 -43.38730021511445
rfemur -24.957205003314357 -1.8451891759557926 17.146364330653025
rtibia 53.982428988851765
rfoot -26.480556120211343 -16.01731091527597
rtoes -16.737085147555668
lfemur -21.71748188556144 1.216548875042464 -18.201517457230537
ltibia 48.56457543997041
lfoot -23.64363882702149 -3.620982977665668
ltoes -15.383758174615595
167
root 0 0 0 1.3952439910217365 -3.469908330806269 1.94956847087667
lowerback 11.956427178194193 0.8528079197991845 -0.18451122299045775
upperback -4.393030693650557 1.057790486694465 -0.6143621839102759
thorax -11.507024767792974 0.48623103551560254 -0.794279254683845
lowerneck -6.166929121429792 1.6295540086750269 4.566343874649743
upperneck 18.451819287385348 3.1169150962811716 -8.212308371683093
head 6.791992456289372 1.1465865186360515 -3.1645173223632854
rclavicle -1.8306897119319873E-16 -9.722563008462904E-16
rhumerus 21.95096440080232 15.76739213656239 -46.70897620695135
rradius 74.05697495271953
rwrist 27.766753464835748
rhand -34.76502955244921 -59.32687846259723
rfingers 7.125019999999999
rthumb -7.927424674255933 -89.14007229728324
lclavicle -1.7288066944509896E-16 -9.496822027265937E-16
lhumerus 22.71322636014111 -12.776830143737927 43.68720086996211
lradius 71.25962570201499
lwrist -23.595815173025944
lhand -45.310230665268065 -73.0609367041665
lfingers 7.12502
lthumb -18.06847919712606 -43.83862910492702
rfemur -24.907938057565147 -1.82482297265266 17.179322185346866
rtibia 53.939775992839216
rfoot -26.449686600803652 -15.992349871894612
rtoes -16.691630281039437
lfemur -22.02923705843042 1.2934894685493932 -18.13396151614097
ltibia 48.9996595716902
lfoot -23.967174252403353 -3.6419198474925505
ltoes -15.630428248481557
168
root 0 0 0 1.40944980697719 -3.522352595256679 1.8899700809910118
lowerback 11.961292158317425 0.8834951150281966 -0.1113340280471955
upperback -4.412664826651593 1.1062774034616285 -0.6198409126416619
thorax -11.527428099877753 0.5081250883102172 -0.8487852099251282
lowerneck -6.13859084865789 1.6354588821286307 4.59421423274445
upperneck 18.451222326784873 3.130043391670926 -8.233759587784746
head 6.788083744273052 1.152062295332314 -3.175820295178239
rclavicle -1.79236029384041E-16 -9.713997349000786E-16
rhumerus 22.078454388415942 15.85185739269662 -46.631102256591
rradius 74.17478591344442
rwrist 27.824978507474793
rhand -34.80701617795093 -59.52707958013579
rfingers 7.12502
rthumb -7.968169165407259 -89.34122098580448
lclavicle -1.7223295057383473E-16 -9.48005398956509E-16
lhumerus 22.776872800585974 -12.792027676588871 43.64435775020718
lradius 71.30851940729197
lwrist -23.627849590942336
lhand -45.33086418880036 -73.16739675650798
lfingers 7.12502
lthumb -18.088383740102685 -43.947857819448885
rfemur -24.92506625551157 -1.8334100194006924 17.1656288639551
rtibia 53.95769603061766
rfoot -26.48333572115206 -16.009126441599694
rtoes -16.72467255691249
lfemur -22.171770288371622 1.3259497310591133 -18.10679410601862
ltibia 49.177925104275445
lfoot -24.11778301184696 -3.6432615051924424
ltoes -15.736703167243382
169
root 0 0 0 1.4227405349687592 -3.563335845080508 1.8469725975230709
lowerback 11.965733084669095 0.9073698334206769 -0.05606597672310709
upperback -4.430763107777337 1.1437454555873143 -0.6255491711456637
thorax -11.546923890529438 0.5250161553434674 -0.8917119093513485
lowerneck -6.110694495805328 1.6427677442179622 4.619495929886691
upperneck 18.450037518221272 3.1440761769697505 -8.255512213843234
head 6.783760427039966 1.1580740570245482 -3.186330878872299
rclavicle -1.7561089993311588E-16 -9.708899253507618E-16
rhumerus 22.210705891614438 15.939407310594389 -46.550698740625506
rradius 74.29790755552125
rwrist 27.885285649350596
rhand -34.85095153755074 -59.73659244776181
rfingers 7.12502
rthumb -8.010968917257244 -89.54927693427581
lclavicle -1.7221435793263646E-16 -9.483590051225967E-16
lhumerus 22.81259370001101 -12.800600210934387 43.61880869948932
lradius 71.33614098588353
lwrist -23.646905947302624
lhand -45.34310413050673 -73.22969419698633
lfingers 7.12502
lthumb -18.09998548810674 -44.01133301869889
rfemur -25.016581088581237 -1.8775540793146615 17.100247636502417
rtibia 54.059806646279185
rfoot -26.600401666101515 -16.07220840678287
rtoes -16.856949597987725
lfemur -22.139604763980472 1.31604354813126 -18.114129350131826
ltibia 49.119521902303106
lfoot -24.084163207459447 -3.6351534634655933
ltoes -15.703842749812786
170
root 0 0 0 1.4309433097623776 -3.5971403894269196 1.8077383378833483
lowerback 11.96837387334166 0.9270956907818143 -0.00886317064995934
upperback -4.442394516192251 1.1750441558555094 -0.6287665108838615
thorax -11.558649684141105 0.5391233902929486 -0.9263483588669598
lowerneck -6.095328598720583 1.6455967101133286 4.635772950358566
upperneck 18.449664412036118 3.150941645847642 -8.267165763046412
head 6.781631575164913 1.1610725354208444 -3.1928075577943273
rclavicle -1.7418802842801255E-16 -9.705329770528228E-16
rhumerus 22.264256742563013 15.975664531230043 -46.5190697650284
rradius 74.34842439453384
rwrist 27.909329721070304
rhand -34.8688092084116 -59.82223316342466
rfingers 7.12502
rthumb -8.028341818809478 -89.63412329977118
lclavicle -1.7347331009322382E-16 -9.480283443012065E-16
lhumerus 22.76454262526755 -12.78827525448794 43.652299854741
lradius 71.2981419063146
lwrist -23.621323674075363
lhand -45.32682906180699 -73.14446230567009
lfingers 7.12502
lthumb -18.08429702801852 -43.928775806720836
rfemur -25.184465039701468 -1.9575861514305242 16.981267926351414
rtibia 54.24505523731537
rfoot -26.81155049278371 -16.187222016470876
rtoes -17.09635859735833
lfemur -22.053321898667775 1.2921145859009833 -18.131622791951063
ltibia 48.98118508092405
lfoot -23.99134222986452 -3.620221210880403
ltoes -15.622338549224347
